<?xml version="1.0" standalone="no"?>
<!DOCTYPE svg PUBLIC "-//W3C//DTD SVG 20010904//EN"
 "http://www.w3.org/TR/2001/REC-SVG-20010904/DTD/svg10.dtd">
<svg version="1.0" xmlns="http://www.w3.org/2000/svg"
 width="360.000000pt" height="338.000000pt" viewBox="0 0 360.000000 338.000000"
 preserveAspectRatio="xMidYMid meet">

<g transform="translate(0.000000,338.000000) scale(0.100000,-0.100000)"
fill="#000000" stroke="none">
<path d="M1620 2859 c-183 -34 -314 -87 -461 -185 -282 -187 -467 -492 -509
-840 -25 -203 21 -456 116 -645 77 -155 202 -306 338 -410 69 -52 209 -135
251 -148 17 -5 64 -22 105 -36 101 -36 223 -55 350 -55 418 0 813 234 1022
605 24 44 65 139 89 210 l44 130 3 188 c4 207 -2 250 -60 417 -105 301 -327
547 -613 678 -127 58 -138 61 -255 83 -112 20 -334 25 -420 8z m217 -180 c58
-123 62 -139 31 -139 -17 0 -29 8 -36 25 -17 38 -66 35 -87 -5 -15 -29 -38
-39 -49 -22 -8 13 76 232 89 232 5 0 29 -41 52 -91z m269 51 c59 -23 73 -92
29 -136 -22 -22 -31 -25 -64 -19 -37 6 -39 5 -46 -24 -6 -31 -36 -43 -50 -22
-6 10 6 73 31 159 14 47 18 52 44 52 16 0 41 -5 56 -10z m-546 -24 c0 -19 -7
-25 -35 -30 -51 -10 -47 -36 5 -36 114 0 117 -135 4 -156 -42 -8 -66 1 -62 22
3 19 21 30 61 39 52 11 28 45 -33 45 -38 0 -60 24 -60 65 0 42 38 75 86 75 29
0 34 -3 34 -24z m769 -65 c19 -12 9 -43 -44 -133 -45 -77 -60 -89 -83 -66 -8
8 0 32 35 97 64 118 64 119 92 102z m208 -156 c35 -35 53 -60 49 -70 -9 -25
-43 -17 -66 15 -12 17 -28 30 -35 30 -28 0 -26 -23 5 -55 28 -29 31 -37 20
-50 -17 -20 -23 -19 -60 11 -23 20 -34 24 -43 15 -8 -8 -3 -20 22 -45 31 -32
38 -65 16 -73 -16 -5 -115 87 -115 107 0 15 135 170 149 170 2 0 28 -25 58
-55z m-1338 -64 c24 -60 40 -114 37 -120 -7 -11 -32 -2 -158 58 -71 33 -78 41
-53 61 12 10 19 10 37 -2 13 -8 42 -22 66 -31 l42 -17 -16 38 c-33 75 -37 89
-31 106 14 37 35 12 76 -93z m786 3 c215 -55 389 -196 484 -390 49 -100 60
-147 68 -288 9 -167 -21 -289 -105 -421 -136 -213 -369 -339 -627 -339 -232 1
-418 87 -554 259 -63 78 -134 215 -150 286 -19 84 -24 203 -12 294 22 171 138
361 290 475 90 68 248 131 361 144 56 6 180 -4 245 -20z m696 -218 c-11 -47
-21 -88 -21 -91 0 -3 21 8 46 26 36 24 51 30 63 22 30 -19 24 -41 -16 -61 -21
-11 -67 -36 -103 -55 -40 -22 -67 -32 -71 -25 -4 5 0 31 8 57 23 70 31 121 21
121 -5 0 -26 -9 -48 -20 -48 -24 -56 -25 -64 -3 -8 21 19 42 119 95 40 21 74
33 79 28 5 -5 0 -45 -13 -94z m-1726 63 c4 -5 -5 -28 -20 -51 -22 -32 -24 -42
-13 -49 23 -15 36 -10 57 26 34 58 67 35 36 -25 -17 -34 -14 -60 7 -60 8 0 22
16 32 35 25 46 38 56 56 45 13 -8 9 -20 -20 -75 -19 -36 -40 -65 -46 -65 -11
0 -161 82 -181 100 -10 8 -5 24 20 70 31 57 57 75 72 49z m-6 -295 c34 -24 53
-78 46 -128 -10 -66 -13 -68 -76 -55 -30 6 -73 15 -97 20 -24 5 -48 11 -53 14
-24 16 4 100 47 140 32 30 97 34 133 9z m1872 -17 c25 -19 39 -52 39 -91 0
-31 -3 -36 -24 -36 -25 0 -36 16 -36 55 0 35 -18 40 -26 8 -12 -55 -16 -64
-37 -83 -42 -40 -99 -15 -117 52 -15 55 -6 90 23 86 17 -2 23 -11 27 -43 8
-57 19 -73 37 -50 7 11 13 29 13 41 0 30 37 74 63 74 12 0 29 -6 38 -13z
m-1843 -401 c3 -64 2 -68 -29 -97 -24 -22 -40 -29 -73 -29 -65 0 -104 38 -119
117 -8 39 11 53 70 53 21 0 58 7 83 14 25 8 50 13 55 12 6 -1 11 -33 13 -70z
m1711 60 c8 -10 8 -21 0 -45 -19 -55 3 -58 45 -6 43 52 74 58 111 20 28 -28
31 -60 11 -110 -10 -24 -21 -35 -36 -35 -24 0 -38 26 -21 43 16 16 14 67 -3
67 -8 0 -24 -15 -35 -34 -63 -101 -171 -22 -116 84 17 33 27 37 44 16z m-13
-262 c91 -47 114 -63 114 -74 0 -7 -85 -37 -185 -64 -5 -2 16 -16 48 -31 38
-18 57 -33 57 -46 0 -31 -19 -32 -68 -3 -26 15 -69 38 -95 51 -27 14 -47 29
-45 35 4 12 64 35 112 44 16 2 38 10 49 15 19 11 18 12 -9 25 -52 26 -78 50
-71 68 9 22 15 21 93 -20z m-1597 -55 c17 -33 29 -64 26 -70 -12 -19 -31 -8
-53 31 -23 41 -36 47 -61 31 -12 -8 -10 -15 8 -46 20 -35 21 -55 0 -55 -5 0
-19 16 -30 35 -22 37 -39 44 -57 22 -8 -9 -4 -24 13 -56 25 -43 25 -61 2 -61
-13 0 -16 4 -61 81 l-27 47 88 51 c48 28 95 51 104 51 9 0 29 -25 48 -61z m97
-144 c3 -8 -5 -44 -19 -80 l-26 -66 22 7 c12 4 43 17 68 30 45 22 76 20 67 -6
-3 -11 -209 -101 -216 -95 -5 5 47 163 64 197 16 31 32 36 40 13z m1284 -26
c0 -5 -14 -28 -32 -50 -29 -36 -30 -41 -16 -55 15 -15 19 -14 46 17 29 32 32
33 48 17 17 -17 17 -19 -14 -51 -29 -30 -31 -35 -18 -47 13 -10 22 -7 51 19
39 34 60 39 69 16 3 -9 -6 -26 -25 -43 -17 -15 -42 -37 -56 -49 -13 -13 -27
-23 -31 -23 -13 0 -142 148 -142 164 0 8 21 33 48 55 46 40 72 51 72 30z
m-182 -216 c58 -97 68 -121 54 -135 -18 -18 -36 -3 -66 58 -16 33 -37 72 -48
87 -21 29 -18 57 6 57 7 0 32 -30 54 -67z m-683 -23 c25 -21 19 -43 -10 -36
-14 3 -36 9 -50 12 -38 10 -32 -19 12 -55 64 -53 44 -121 -35 -121 -43 0 -103
35 -95 56 7 18 37 18 53 -1 14 -17 56 -20 66 -4 3 6 -12 30 -35 53 -46 47 -50
67 -20 97 17 17 29 20 61 16 21 -3 45 -11 53 -17z m474 -6 c24 -5 35 -15 47
-42 13 -31 13 -38 -1 -58 -8 -12 -24 -26 -36 -29 -18 -6 -20 -12 -15 -45 5
-30 2 -39 -10 -44 -9 -4 -19 -5 -21 -2 -6 5 -31 100 -43 160 -13 65 1 75 79
60z m-231 -111 c23 -54 42 -104 42 -110 0 -23 -40 -14 -52 12 -6 14 -14 25
-17 25 -3 0 -16 3 -28 6 -17 5 -25 -1 -37 -25 -16 -29 -56 -45 -56 -21 0 16
92 210 100 210 4 0 26 -44 48 -97z"/>
<path d="M1780 2650 c0 -5 5 -10 10 -10 6 0 10 5 10 10 0 6 -4 10 -10 10 -5 0
-10 -4 -10 -10z"/>
<path d="M2057 2661 c-6 -24 0 -31 25 -31 14 0 19 6 16 22 -4 29 -34 36 -41 9z"/>
<path d="M1670 2376 c-127 -22 -290 -120 -377 -224 -144 -173 -188 -354 -147
-594 33 -196 161 -362 351 -457 121 -60 187 -76 318 -76 110 0 128 3 218 34
112 38 207 98 280 177 26 28 47 55 47 60 0 5 14 27 30 48 17 23 45 87 65 148
31 96 35 119 35 217 0 191 -65 348 -199 481 -96 96 -244 175 -356 190 -90 12
-183 11 -265 -4z m295 -40 c236 -62 428 -260 471 -483 53 -280 -39 -511 -271
-675 -71 -50 -99 -63 -194 -87 -157 -39 -329 -21 -460 49 -161 86 -306 286
-328 452 -12 86 -5 234 12 296 48 166 177 320 329 393 46 23 106 47 133 54 63
17 245 18 308 1z"/>
<path d="M1786 2186 c-76 -77 -117 -145 -142 -241 -12 -44 -11 -64 8 -176 21
-124 21 -125 2 -164 -14 -30 -27 -41 -53 -48 -70 -17 -109 25 -119 130 l-7 68
-24 -34 c-102 -143 -93 -333 20 -444 41 -39 55 -47 86 -47 48 0 90 26 136 82
71 86 105 211 93 342 l-6 71 35 -40 c52 -58 93 -133 106 -191 15 -66 2 -127
-52 -240 -36 -77 -39 -88 -26 -102 13 -13 24 -12 89 8 190 58 295 156 327 308
25 120 5 246 -57 350 -36 61 -116 153 -164 191 -17 13 -17 11 -2 -30 8 -24 18
-76 21 -114 5 -58 3 -73 -11 -84 -42 -35 -157 42 -196 131 -32 71 -32 205 -2
291 12 31 19 57 17 57 -3 0 -38 -33 -79 -74z"/>
<path d="M843 1923 c-12 -10 -23 -27 -25 -37 -2 -16 7 -22 47 -32 75 -20 85
-18 85 14 0 38 -19 60 -55 68 -22 4 -37 0 -52 -13z"/>
<path d="M865 1575 c-5 -2 -22 -6 -37 -9 -36 -8 -36 -35 -1 -70 48 -48 112
-18 113 52 0 30 -2 32 -32 31 -18 0 -37 -2 -43 -4z"/>
<path d="M2037 863 c-12 -3 -16 -10 -13 -20 3 -8 9 -26 12 -39 3 -13 12 -24
19 -24 15 0 45 32 45 50 0 12 -29 40 -40 39 -3 -1 -13 -3 -23 -6z"/>
<path d="M1777 760 c-4 -15 0 -20 13 -20 13 0 17 5 13 20 -3 11 -9 20 -13 20
-4 0 -10 -9 -13 -20z"/>
</g>
</svg>
